<svg id="Layer_1" data-name="Layer 1" xmlns="http://www.w3.org/2000/svg" viewBox="0 0 512 512"><title>basket</title><path d="M.07,256C.07,114.65,114.65.05,256,.05S511.94,114.66,511.93,256,397.34,511.95,256,511.95.05,397.35.07,256Z" fill="#ffc412"/><rect x="230.59" y="278.69" width="52.23" height="41.52" fill="#fff"/><polygon points="223.55 352.1 223.55 327.25 170.67 327.25 177.19 352.1 223.55 352.1" fill="#fff"/><rect x="230.59" y="244.68" width="52.23" height="26.97" fill="#fff"/><rect x="230.59" y="327.25" width="52.23" height="24.86" fill="#fff"/><polygon points="354.04 278.69 289.85 278.69 289.85 320.21 343.15 320.21 354.04 278.69" fill="#fff"/><polygon points="289.85 352.1 334.81 352.1 341.31 327.25 289.85 327.25 289.85 352.1" fill="#fff"/><polygon points="223.55 278.69 157.95 278.69 168.84 320.21 223.55 320.21 223.55 278.69" fill="#fff"/><path d="M149.05,244.68l7.06,27h67.44v-27h-26l36.26-47.6A22.08,22.08,0,0,1,217,184.29l-46,60.39Z" fill="#fff"/><path d="M252.09,171.66a15.2,15.2,0,0,0-29.83,5.76c.06.38.12.77.21,1.15a15.22,15.22,0,0,0,14.8,11.76,15.45,15.45,0,0,0,1.78-.11,14.92,14.92,0,0,0,1.69-.29,15.21,15.21,0,0,0,11.75-14.81c0-.22,0-.44,0-.66A15.13,15.13,0,0,0,252.09,171.66Z" fill="#fff"/><path d="M295,184.29a22.07,22.07,0,0,1-16.79,12.79l36.25,47.6H289.84v27h66l7.07-27H341Z" fill="#fff"/><path d="M259.89,171.66a15.23,15.23,0,0,0-.37,2.8c0,.22,0,.44,0,.66a15.19,15.19,0,0,0,13.44,15.1,15.54,15.54,0,0,0,1.77.11,15.22,15.22,0,0,0,14.81-11.76c.09-.38.15-.77.2-1.15a15.2,15.2,0,0,0-29.83-5.76Z" fill="#fff"/></svg>